# xmcd CD database file
#
# Track frame offsets:
#	150
#	15584
#	31285
#	48612
#	62253
#	75440
#	90924
#	105943
#	124177
#	144578
#	163320
#	178811
#	200428
#	225561
#	245576
#	260859
#	280541
#	299747
#	328325
#	339601
#
# Disc length: 4699 seconds
#
# Revision: 0
# Processed by: cddbd v1.5.2PL0 Copyright (c) Steve Scherf et al.
# Submitted via: CDex 1.51
#
DISCID=21125914
DTITLE=Holiday, Billie - Lady In Satin
DYEAR=1900
DGENRE=Jazz
TTITLE0=I'm A Fool To Want You
TTITLE1=For Heaven's Sake
TTITLE2=You Don't Know What Love Is
TTITLE3=I Get Along Without You Very Well
TTITLE4=For All We Know
TTITLE5=Violets For Your Furs
TTITLE6=You've Changed
TTITLE7=It's Easy To Remember
TTITLE8=But Beautiful
TTITLE9=Glad To Be Unhappy
TTITLE10=I'll Be Around
TTITLE11=The End Of A Love Affair
TTITLE12=Prelude To A Kiss
TTITLE13=A Ghost Of A Chance
TTITLE14=Gone With The Wind
TTITLE15=Come Rain Or Come Shaine
TTITLE16=What's New
TTITLE17=Fine And Mellow
TTITLE18=When Your Lover Has Gone
TTITLE19=Don't Explain
EXTD=
EXTT0=
EXTT1=
EXTT2=
EXTT3=
EXTT4=
EXTT5=
EXTT6=
EXTT7=
EXTT8=
EXTT9=
EXTT10=
EXTT11=
EXTT12=
EXTT13=
EXTT14=
EXTT15=
EXTT16=
EXTT17=
EXTT18=
EXTT19=
PLAYORDER=
